Coordinates
version=1
nRows=11
nColumns=40
inDegrees=yes

Units are S.I. units (second, meters, Newtons, ...)
If the header above contains a line with 'inDegrees', this indicates whether rotational values are in degrees (yes) or radians (no).

endheader
time	pelvis_tilt	pelvis_list	pelvis_rotation	pelvis_tx	pelvis_ty	pelvis_tz	hip_flexion_r	hip_adduction_r	hip_rotation_r	knee_angle_r	knee_angle_r_beta	ankle_angle_r	subtalar_angle_r	mtp_angle_r	hip_flexion_l	hip_adduction_l	hip_rotation_l	knee_angle_l	knee_angle_l_beta	ankle_angle_l	subtalar_angle_l	mtp_angle_l	lumbar_extension	lumbar_bending	lumbar_rotation	arm_flex_r	arm_add_r	arm_rot_r	elbow_flex_r	pro_sup_r	wrist_flex_r	wrist_dev_r	arm_flex_l	arm_add_l	arm_rot_l	elbow_flex_l	pro_sup_l	wrist_flex_l	wrist_dev_l
      0.00000000	    -22.85498438	     15.42625087	     -8.16037990	     -2.91543965	      0.91119939	      0.29818722	     -3.48390302	    -20.39888140	     -1.46058182	     22.95939265	      0.40071700	    -14.38961663	      0.00000000	      0.00000000	     80.82971567	     -3.42115109	     -9.91923451	     91.23002159	      1.59226425	     10.65725802	      0.00000000	      0.00000000	    -18.33022658	    -20.66236415	     -3.82154515	     75.84325180	    -16.82468866	      4.07542332	    130.23382741	     49.81936153	      0.00000000	      0.00000000	    -75.63030282	    -13.11480298	    -36.99847136	     76.62971011	     47.02262464	      0.00000000	      0.00000000
      0.00500000	    -22.62721710	     15.54384921	     -7.11399153	     -2.88342518	      0.91527245	      0.29845123	     -4.81300891	    -20.27080567	     -1.43692158	     23.80106317	      0.41540692	    -17.55385572	      0.00000000	      0.00000000	     80.09696662	     -2.84642307	    -10.69762153	     86.88425499	      1.51641632	     10.24508870	      0.00000000	      0.00000000	    -18.70448052	    -20.96679935	     -5.39364249	     72.69821028	    -16.92308340	      5.17684350	    130.63050188	     49.80108908	      0.00000000	      0.00000000	    -75.42568694	    -12.65242848	    -37.19116971	     78.03949061	     47.04543234	      0.00000000	      0.00000000
      0.01000000	    -22.27731121	     15.67056000	     -6.22937189	     -2.85156629	      0.91973262	      0.29867785	     -5.74932595	    -20.15427987	     -1.34696643	     25.51853605	      0.44538247	    -18.90226721	      0.00000000	      0.00000000	     78.95721223	     -2.29255419	    -11.63813814	     82.38611115	      1.43790890	     10.15648623	      0.00000000	      0.00000000	    -19.42091962	    -21.06084167	     -6.56135289	     70.75538608	    -17.06023491	      5.50265422	    130.45256212	     49.78862628	      0.00000000	      0.00000000	    -74.07813129	    -12.97272386	    -36.98217600	     78.83816834	     47.08031206	      0.00000000	      0.00000000
      0.01500000	    -21.77402559	     15.66631090	     -5.60868529	     -2.81971575	      0.92458732	      0.29929221	     -6.49716033	    -19.85937866	     -1.01058375	     27.58055436	      0.48137148	    -21.17644737	      0.00000000	      0.00000000	     77.40989880	     -1.93351446	    -12.55787410	     77.88268743	      1.35930933	      9.28905109	      0.00000000	      0.00000000	    -20.11571051	    -21.43452966	     -7.53046535	     66.00003455	    -17.44851278	      6.11582863	    130.57595303	     49.77364829	      0.00000000	      0.00000000	    -72.86007607	    -12.89283924	    -36.89753138	     79.67023595	     47.07043761	      0.00000000	      0.00000000
      0.02000000	    -21.22293928	     15.59446351	     -5.03302907	     -2.78805499	      0.92956774	      0.29965965	     -6.87127923	    -19.51250120	     -0.80255596	     30.41897969	      0.53091135	    -21.87481857	      0.00000000	      0.00000000	     75.59894614	     -1.49830096	    -13.44114643	     73.31336401	      1.27955959	      8.99506577	      0.00000000	      0.00000000	    -21.16792672	    -21.47726485	     -8.39308827	     63.08157335	    -17.66761433	      6.38552675	    129.95339969	     49.72409639	      0.00000000	      0.00000000	    -70.89401036	    -13.16773829	    -36.50741174	     80.66741962	     47.11040161	      0.00000000	      0.00000000
      0.02500000	    -20.65016424	     15.41540889	     -4.65136726	     -2.75658066	      0.93451613	      0.30036722	     -6.92415625	    -18.99688531	     -0.27754282	     33.66868680	      0.58762944	    -22.15095271	      0.00000000	      0.00000000	     73.62276591	     -1.25934737	    -14.34761922	     68.85425017	      1.20173337	      8.01056027	      0.00000000	      0.00000000	    -22.20946799	    -21.79937000	     -8.47396786	     57.45113734	    -18.81239714	      4.96326200	    129.90296504	     49.41534791	      0.00000000	      0.00000000	    -68.85912616	    -13.88950610	    -36.59854793	     82.18624839	     46.97167518	      0.00000000	      0.00000000
      0.03000000	    -20.04655210	     15.21585471	     -4.27816667	     -2.72528555	      0.93936961	      0.30084276	     -6.70085750	    -18.50458167	     -0.01853220	     37.42965657	      0.65327075	    -22.06141200	      0.00000000	      0.00000000	     71.48930490	     -0.92553297	    -15.20677331	     64.49322341	      1.12561909	      7.49334119	      0.00000000	      0.00000000	    -23.31211070	    -21.62993490	     -9.13947405	     54.10864698	    -18.85373245	      5.33288622	    128.25546060	     49.29618402	      0.00000000	      0.00000000	    -66.38686526	    -14.27733336	    -35.92555487	     83.27185513	     47.01575980	      0.00000000	      0.00000000
      0.03500000	    -19.50934670	     14.92347835	     -3.89741414	     -2.69418268	      0.94388523	      0.30119626	     -6.15524758	    -17.92296638	      0.09374604	     41.57886495	      0.72568809	    -21.68798896	      0.00000000	      0.00000000	     69.34692021	     -0.58063948	    -15.92881309	     60.30629323	      1.05254338	      6.82883913	      0.00000000	      0.00000000	    -24.33725494	    -21.39303075	     -9.70087661	     50.46810113	    -18.90890155	      5.46890194	    126.28609164	     49.14654242	      0.00000000	      0.00000000	    -63.77062066	    -14.77047655	    -35.29112958	     84.39238297	     47.06498607	      0.00000000	      0.00000000
      0.04000000	    -19.03970894	     14.57821057	     -3.51808175	     -2.66325954	      0.94802122	      0.30153576	     -5.34056744	    -17.27238958	      0.20658749	     45.96104238	      0.80217152	    -21.12281638	      0.00000000	      0.00000000	     67.22022440	     -0.26300057	    -16.61029311	     56.38781910	      0.98415310	      6.05644391	      0.00000000	      0.00000000	    -25.29052722	    -21.10117257	    -10.14924770	     46.66924284	    -18.96151271	      5.36866965	    123.95977342	     48.96032153	      0.00000000	      0.00000000	    -61.01024910	    -15.31954838	    -34.66279947	     85.58590012	     47.12000043	      0.00000000	      0.00000000
      0.04500000	    -18.61556872	     14.08212457	     -3.20786110	     -2.63240556	      0.95177236	      0.30214341	     -4.32327446	    -16.38802291	      0.46389402	     50.41699998	      0.87994265	    -20.02982858	      0.00000000	      0.00000000	     65.14112359	     -0.16166498	    -17.30278829	     52.92809898	      0.92376959	      4.50329677	      0.00000000	      0.00000000	    -25.92591771	    -20.88408969	     -8.12955315	     40.20576461	    -18.91624562	      0.10568262	    121.71950572	     48.23684670	      0.00000000	      0.00000000	    -57.16424714	    -18.92206118	    -32.05237597	     86.51046340	     46.90713078	      0.00000000	      0.00000000
      0.05000000	    -18.28844201	     13.59015482	     -2.72016018	     -2.60171746	      0.95499276	      0.30230998	     -3.10005469	    -15.56908077	      0.32083168	     54.98697127	      0.95970369	    -19.32826542	      0.00000000	      0.00000000	     63.16831604	      0.11157033	    -17.84383903	     49.82226825	      0.86956262	      3.56433942	      0.00000000	      0.00000000	    -26.69973313	    -20.41707701	     -8.47245183	     36.55725881	    -18.88914953	     -0.07159952	    118.46119562	     47.95838922	      0.00000000	      0.00000000	    -53.99373814	    -19.28809448	    -31.26287780	     88.00315946	     46.95766075	      0.00000000	      0.00000000
